<?xml version="1.0" encoding="UTF-8" standalone="no"?>
<!-- Created with Inkscape (http://www.inkscape.org/) -->

<svg
   width="112.30151mm"
   height="131.30396mm"
   viewBox="0 0 112.30151 131.30396"
   version="1.1"
   id="svg1"
   inkscape:version="1.3 (0e150ed, 2023-07-21)"
   sodipodi:docname="logo-book-light.svg"
   xmlns:inkscape="http://www.inkscape.org/namespaces/inkscape"
   xmlns:sodipodi="http://sodipodi.sourceforge.net/DTD/sodipodi-0.dtd"
   xmlns="http://www.w3.org/2000/svg"
   xmlns:svg="http://www.w3.org/2000/svg">
  <sodipodi:namedview
     id="namedview1"
     pagecolor="#ffffff"
     bordercolor="#000000"
     borderopacity="0.25"
     inkscape:showpageshadow="2"
     inkscape:pageopacity="0.0"
     inkscape:pagecheckerboard="0"
     inkscape:deskcolor="#d1d1d1"
     inkscape:document-units="mm"
     inkscape:zoom="0.2102413"
     inkscape:cx="237.82197"
     inkscape:cy="223.55265"
     inkscape:window-width="1312"
     inkscape:window-height="449"
     inkscape:window-x="0"
     inkscape:window-y="250"
     inkscape:window-maximized="0"
     inkscape:current-layer="layer1" />
  <defs
     id="defs1" />
  <g
     inkscape:label="Layer 1"
     inkscape:groupmode="layer"
     id="layer1"
     transform="translate(-41.957202,-89.055543)">
    <path
       d="m 94.76553,219.65662 c -1.48191,-0.37242 -2.742011,-0.72475 -2.800238,-0.78297 -0.05823,-0.0582 0.0093,-0.32099 0.150009,-0.58393 0.369211,-0.68987 0.31552,-1.17068 -0.159088,-1.42468 -0.593459,-0.31761 -20.827731,-4.37764 -31.89259,-6.39928 -2.082827,-0.38055 -6.556184,-1.22276 -9.940782,-1.87159 -3.384599,-0.64881 -6.606477,-1.25311 -7.159726,-1.34288 -0.553257,-0.0898 -1.005913,-0.20018 -1.005913,-0.24535 0,-0.0452 0.11657,-0.38196 0.259046,-0.74842 0.142477,-0.36646 2.264468,-6.471 4.715523,-13.56564 2.451064,-7.09464 4.794253,-13.8313 5.207101,-14.97035 l 0.750624,-2.07099 h 0.894764 c 0.492124,0 1.235421,0.0682 1.651776,0.1514 0.922836,0.18457 1.103125,-0.69098 -1.796417,8.72429 -4.061135,13.18714 -4.88904,15.98466 -4.766745,16.10695 0.125005,0.12501 10.343683,1.06821 11.186867,1.03257 0.26249,-0.0111 -0.960613,-0.31943 -2.718,-0.68519 -1.757387,-0.36576 -3.742789,-0.78905 -4.412008,-0.94065 l -1.216752,-0.27562 0.798644,-2.53029 c 0.439255,-1.39167 0.800407,-2.61018 0.802554,-2.70782 0.01655,-0.74982 19.966405,0.53464 26.63101,1.71464 4.524955,0.80117 8.858018,2.5644 11.873924,4.83178 1.605617,1.20713 4.777537,4.47347 5.704747,5.87458 0.32487,0.49091 0.6564,0.89236 0.73673,0.89213 0.0803,-2.3e-4 0.45175,-0.48428 0.82537,-1.07565 1.80902,-2.8634 5.68243,-6.19687 9.3244,-8.02466 5.27492,-2.64729 13.50857,-3.85955 29.29404,-4.31301 l 5.21506,-0.1498 0.86914,2.67928 c 0.47802,1.47362 0.82348,2.75315 0.7677,2.84342 -0.0558,0.0903 -0.557,0.23596 -1.11381,0.32376 -0.55681,0.0878 -2.45024,0.46984 -4.20763,0.84897 -2.69783,0.58203 -2.95574,0.67289 -1.65679,0.58369 2.90658,-0.19959 9.81923,-0.85238 9.90192,-0.93506 0.11399,-0.114 -0.63913,-2.64412 -4.29748,-14.43722 l -3.15715,-10.17747 0.61067,-0.1495 c 0.33586,-0.0822 1.10162,-0.16212 1.70167,-0.17752 l 1.09102,-0.028 1.32287,3.7278 c 0.72757,2.05028 2.34922,6.65676 3.60366,10.23664 1.25445,3.57986 3.12533,8.88636 4.15753,11.79221 1.03219,2.90586 1.81565,5.38218 1.74102,5.50293 -0.0746,0.12077 -0.32825,0.21957 -0.56357,0.21957 -0.23533,0 -2.33259,0.36824 -4.66057,0.81831 -2.32798,0.45007 -4.49897,0.86666 -4.82441,0.92574 -3.14585,0.57122 -10.27924,1.91844 -12.07095,2.27972 -3.13723,0.63262 -6.95698,1.355 -8.63901,1.6338 -1.94174,0.32185 -13.93095,2.74938 -16.61934,3.36501 -1.19985,0.27477 -2.35079,0.62333 -2.55764,0.77459 -0.3397,0.24839 -0.34105,0.34256 -0.014,0.97292 0.19915,0.38386 0.285,0.77341 0.19079,0.86569 -0.21593,0.21149 -6.12186,1.62739 -6.64643,1.59343 -0.21381,-0.0139 -1.60121,-0.32987 -3.08312,-0.70227 z m 13.81859,-12.36831 c 3.57322,-1.15497 7.54827,-2.17899 10.65084,-2.74378 1.43194,-0.26067 4.30767,-0.78432 6.3905,-1.16366 2.08283,-0.37934 4.6147,-0.82484 5.62637,-0.98999 1.01167,-0.16517 1.79784,-0.34186 1.74705,-0.39266 -0.0508,-0.0508 -1.78386,0.0219 -3.85124,0.1616 -11.93502,0.80635 -21.08288,3.16363 -25.79986,6.64828 -1.89103,1.39698 -1.73859,1.49659 0.54879,0.35857 1.1462,-0.57025 3.2556,-1.41552 4.68755,-1.87836 z m -14.95219,2.13116 c -2.207442,-1.81611 -4.914466,-3.19009 -8.630185,-4.38034 -5.388598,-1.72612 -10.331401,-2.49012 -19.257674,-2.97662 -2.344576,-0.12779 -2.097695,0.16998 0.355032,0.4282 1.791712,0.18863 8.581868,1.36384 11.83426,2.04822 5.402633,1.13684 11.330748,3.02452 14.329692,4.563 1.933365,0.99181 2.288605,1.07422 1.368875,0.31754 z m -0.26499,-2.60616 c -3.655156,-3.36744 -7.198575,-5.17854 -13.016516,-6.65299 -2.366358,-0.59971 -6.717625,-1.24761 -9.635962,-1.4348 l -1.656794,-0.10627 1.301771,0.34242 c 0.715969,0.18834 2.473356,0.61305 3.905303,0.94383 4.837576,1.11744 8.519293,2.46684 13.13603,4.81452 3.751931,1.90791 6.264228,3.0354 6.912908,3.10242 0.0921,0.009 -0.33397,-0.4446 -0.94674,-1.00913 z m 14.8039,-1.78461 c 5.15544,-2.58265 10.78119,-4.40513 18.40136,-5.9612 2.3228,-0.47432 1.05281,-0.53062 -2.67154,-0.11842 -7.69157,0.85127 -12.86365,2.27907 -16.9302,4.67374 -1.37992,0.81259 -3.7705,2.6691 -4.64774,3.60942 l -0.58096,0.62272 1.58323,-0.59591 c 0.87077,-0.32777 3.0514,-1.33142 4.84585,-2.23035 z m -34.093472,2.18973 c -0.149571,-0.14956 -3.978845,-0.86796 -9.398377,-1.7632 -4.972958,-0.82147 -15.955911,-2.61258 -16.309458,-2.65976 -0.183251,-0.0244 -0.413689,0.24843 -0.512073,0.60642 -0.09838,0.35798 -0.108206,0.65301 -0.02183,0.6556 0.08633,0.003 1.96768,0.27231 4.180693,0.59935 6.88218,1.01706 12.153894,1.69813 16.212945,2.09461 2.147916,0.20981 4.224831,0.41803 4.615359,0.46272 0.390529,0.0447 0.860941,0.0972 1.045363,0.11674 0.184414,0.0195 0.268735,-0.0311 0.187375,-0.11248 z m 51.488732,-0.20957 c 1.92,-0.19606 5.04166,-0.5146 6.93701,-0.70788 1.89536,-0.19328 4.79781,-0.56955 6.44987,-0.83614 4.19059,-0.67625 7.05062,-1.11272 8.5067,-1.2982 0.68343,-0.087 1.24259,-0.19654 1.24259,-0.24329 0,-0.0468 -0.12684,-0.36338 -0.28186,-0.70363 -0.20971,-0.46024 -0.40665,-0.586 -0.76924,-0.49115 -0.26804,0.0701 -3.84237,0.66644 -7.94293,1.32515 -4.10058,0.6587 -9.10647,1.51154 -11.12422,1.8952 -2.01774,0.38365 -4.38755,0.81721 -5.26625,0.96345 -0.87868,0.14625 -1.59761,0.30823 -1.59761,0.35995 0,0.13079 -0.0462,0.13395 3.84594,-0.26346 z m -16.86364,-12.77948 c 4.69868,-2.81436 9.01731,-4.14717 17.15968,-5.29576 6.23319,-0.87928 5.95111,-0.87042 6.1213,-0.19237 0.0818,0.32619 0.20842,0.74829 0.28123,0.93803 0.10382,0.27057 -0.1895,0.37949 -1.35994,0.505 -8.95732,0.96059 -16.81982,2.41741 -21.01884,3.89454 -0.71597,0.25186 -1.51479,0.53231 -1.77514,0.62322 -0.26036,0.0909 0.006,-0.12179 0.59171,-0.47266 z m -22.366767,-0.0252 c -2.999482,-1.10212 -10.880365,-2.67952 -17.633057,-3.52935 -2.798806,-0.35223 -5.121599,-0.67001 -5.161765,-0.70619 -0.04017,-0.0361 0.09037,-0.45687 0.290097,-0.93487 0.334654,-0.80095 0.423904,-0.85905 1.13812,-0.74092 0.426239,0.0705 1.680303,0.24095 2.786809,0.37879 1.106507,0.13783 2.171586,0.29294 2.366851,0.34467 0.195264,0.0517 0.887572,0.15696 1.538453,0.23384 4.334503,0.51192 9.301576,1.86738 12.598507,3.43801 3.349022,1.59545 4.419344,2.37706 2.075985,1.51602 z m 5.798787,-1.323 c -0.815067,-0.66126 -4.17731,-2.31935 -6.775708,-3.34144 -4.483931,-1.76378 -10.415829,-3.19657 -16.948398,-4.09375 -1.657787,-0.22768 -3.123548,-0.48157 -3.257258,-0.56421 -0.164947,-0.10194 -0.157988,-0.39446 0.02165,-0.90975 0.236906,-0.67958 0.343045,-0.74751 1.008749,-0.64557 0.409189,0.0626 1.276526,0.17953 1.927407,0.25971 11.200465,1.37989 19.965484,4.53699 23.889841,8.60499 1.008749,1.04566 1.090207,1.46602 0.133717,0.69002 z m 11.83428,-0.76925 c 2.46018,-2.59108 6.65432,-4.70858 12.83656,-6.48081 2.68564,-0.76988 4.79787,-1.19241 9.62388,-1.92519 4.24788,-0.64499 4.20593,-0.64776 4.34842,0.28781 0.0644,0.42308 0.10315,0.78649 0.0861,0.80758 -0.0171,0.0211 -1.30922,0.21386 -2.87134,0.42834 -9.6839,1.32962 -19.31777,4.1928 -23.3959,6.95322 -1.63919,1.10956 -1.73794,1.09839 -0.62765,-0.0709 z m -15.077698,-6.30391 c -4.868206,-2.34145 -11.809409,-4.25958 -19.241679,-5.31723 -1.497035,-0.21304 -2.815266,-0.47612 -2.929402,-0.58464 -0.114137,-0.10851 -0.138737,-0.47136 -0.05466,-0.80633 0.197492,-0.78688 0.791506,-0.78875 5.350919,-0.0169 6.531056,1.10559 9.383786,1.94598 13.609404,4.00922 2.199683,1.07404 5.798788,3.4381 5.798788,3.80892 0,0.13891 0.271856,0.2562 -2.533363,-1.09302 z m 16.261118,0.48185 c 4.2574,-3.46282 9.90323,-5.68976 17.98809,-7.09521 1.49703,-0.26025 3.4266,-0.53592 4.28794,-0.61263 l 1.56607,-0.13946 0.26931,0.77254 c 0.14812,0.42489 0.2422,0.79081 0.20907,0.81314 -0.0331,0.0224 -1.39159,0.22243 -3.0188,0.44468 -7.73761,1.05679 -13.60997,2.61529 -19.17151,5.08802 -1.56161,0.69431 -2.46965,1.00503 -2.13017,0.72892 z m -48.428454,-2.96385 c 0.0738,-0.19231 0.622586,-1.97134 1.219516,-3.95339 1.405352,-4.66627 4.644522,-14.93779 4.748031,-15.05615 0.197724,-0.22608 13.314047,2.75487 16.070487,3.65235 2.430086,0.79122 6.254772,2.60676 8.166488,3.87656 3.767953,2.50274 6.728712,5.89131 8.176252,9.35764 0.36781,0.88078 0.28882,0.82735 -1.31404,-0.88898 -4.443764,-4.75833 -11.723753,-8.05662 -22.575984,-10.22832 -2.979417,-0.59623 -5.519543,-1.1058 -5.644737,-1.13237 -0.289926,-0.0615 -0.707113,1.08086 -2.813029,7.70311 -0.941791,2.96152 -1.826501,5.38654 -1.966025,5.38892 -0.139533,0.003 -1.141868,0.37017 -2.227415,0.81731 -1.397319,0.57556 -1.934537,0.71087 -1.839544,0.46332 z m 82.449944,0.10562 c -0.22675,-0.12691 -1.22631,-0.51883 -2.22124,-0.87096 l -1.80897,-0.64021 -2.03712,-6.3125 c -1.12042,-3.47188 -2.10573,-6.38021 -2.18958,-6.46296 -0.1897,-0.18717 -9.49116,1.78438 -12.92795,2.74023 -4.80522,1.33645 -9.14236,3.27503 -11.80251,5.2754 -1.76601,1.32799 -4.17516,3.86532 -4.80794,5.06373 -0.30427,0.57625 -0.46922,0.72984 -0.47605,0.44328 -0.0139,-0.57952 1.65867,-4.0735 2.45257,-5.12362 1.19769,-1.58421 3.82032,-4.07734 5.64283,-5.36418 3.69808,-2.61115 7.35637,-3.96879 16.15437,-5.99507 2.8639,-0.6596 5.88884,-1.36106 6.72209,-1.55881 0.83325,-0.19775 1.59737,-0.27443 1.69804,-0.17041 0.21976,0.22707 6.17869,19.04184 6.0664,19.15413 -0.029,0.029 -0.23818,-0.0512 -0.46494,-0.17805 z m -51.813243,-3.17171 c -3.921906,-2.04236 -10.186276,-3.74865 -18.302759,-4.98531 -0.520714,-0.0794 -1.020262,-0.18932 -1.11012,-0.24441 -0.126661,-0.0777 0.180772,-1.39367 0.393704,-1.68529 0.0857,-0.11732 6.70206,1.12481 8.44933,1.58624 2.395172,0.63253 4.952822,1.56013 6.704887,2.43172 1.413197,0.70301 5.325415,3.19447 5.325415,3.39144 0,0.1996 -0.365195,0.076 -1.460457,-0.49439 z m 20.395293,0.2774 c 0,-0.19012 3.37067,-2.30582 4.88109,-3.06375 3.12798,-1.56964 6.25089,-2.50612 11.59895,-3.47827 3.48811,-0.63405 3.54809,-0.62967 3.72861,0.27294 0.0823,0.41132 0.11096,0.78647 0.0638,0.83367 -0.0472,0.0472 -1.67219,0.35233 -3.61109,0.67809 -5.75699,0.96724 -11.2146,2.48355 -14.91558,4.14407 -1.56559,0.70243 -1.74574,0.76572 -1.74574,0.61325 z"
       style="fill:#ffffff;stroke-width:0.894559"
       id="path1-7"
       sodipodi:nodetypes="ssssssssssscscssssscscssssssscsscsssscsscsssssscsssssssssssssscssssssssssssscsssssssssscsssssscssssssssssssssssscsssssscssssssscsssssssssssssssssssssssssssssssscscssssssssssssscsssscssssscssssssscsssssscsssssssss" />
    <path
       style="fill:#ffffff;stroke-width:0.851007"
       d="m 86.102026,172.89519 c -2.364761,-0.65047 -4.353487,-1.49018 -6.56777,-2.77311 -6.811302,-3.9464 -10.979731,-9.92134 -12.353863,-17.70776 -0.508358,-2.88057 -0.339158,-8.5136 0.325331,-10.8312 1.144944,-3.99331 2.770085,-6.84744 5.39254,-9.47055 1.649198,-1.64962 4.56754,-3.66881 5.302514,-3.66881 0.147243,0 -0.199375,0.67645 -0.770259,1.50323 -2.106293,3.05039 -3.717598,6.96339 -4.573865,11.10743 -0.50126,2.42596 -0.567916,9.45219 -0.109599,11.55238 0.452336,2.07273 1.596953,5.38692 2.538168,7.34913 2.52633,5.26676 7.702794,10.77275 11.95506,12.71608 1.85634,0.84837 1.43493,0.931 -1.138257,0.22318 z m 14.265744,-1.63721 c -4.38939,-4.24862 -6.40043,-9.5797 -6.11165,-16.20147 0.26619,-6.10383 2.11904,-10.64253 7.68662,-18.82901 8.13159,-11.95656 10.20946,-16.78147 10.20946,-23.70684 0,-2.22602 -0.37548,-5.18918 -0.7831,-6.17995 -0.32179,-0.78216 0.33791,-0.34738 2.47503,1.6312 4.30627,3.98683 6.28123,8.53591 6.28875,14.48543 0.008,5.94574 -1.57907,10.26587 -6.65599,18.12363 -1.42449,2.20473 -3.39841,5.2613 -4.38648,6.79237 -3.47066,5.37793 -5.50406,9.91341 -6.63961,14.80959 -0.32374,1.39589 -0.41319,2.73385 -0.41319,6.17995 0,2.41908 -0.0263,4.39833 -0.0584,4.39833 -0.0321,0 -0.75726,-0.67645 -1.61143,-1.50323 z m 7.2035,3.33067 c -0.48419,-7.71905 1.57407,-15.5857 5.45923,-22.20454 0.4471,-0.73492 2.31654,-3.64116 4.15432,-6.45832 4.20753,-6.44977 5.27699,-8.27709 6.35411,-10.85689 0.93553,-2.24066 1.83292,-5.41783 1.83292,-6.48938 0,-1.01564 0.30525,-0.51236 1.33598,2.20259 1.9575,5.15616 2.63316,8.71132 2.6241,13.80747 -0.01,5.46367 -0.82161,8.93852 -3.17413,13.58474 -3.42014,6.75478 -9.43402,11.93559 -16.10951,13.87793 z m -19.101657,-8.09973 c -2.292808,-1.61319 -5.472235,-5.2877 -7.098004,-8.20325 -3.73127,-6.69145 -3.836851,-15.3074 -0.280142,-22.86283 1.38395,-2.93988 3.356242,-6.16965 6.233786,-10.20824 6.622257,-9.29424 8.933397,-13.64708 9.806307,-18.46938 0.34637,-1.91347 0.29344,-6.12416 -0.10039,-7.985713 -0.64309,-3.03983 -2.09457,-6.00643 -4.121407,-8.42355 -0.54285,-0.64738 -0.94636,-1.2168 -0.89669,-1.26538 0.15197,-0.14867 2.643247,0.83224 4.447087,1.75099 4.6376,2.36208 8.40027,7.01888 9.79527,12.122963 0.69234,2.53319 0.85642,7.27203 0.3583,10.34862 -0.91198,5.63283 -2.66852,9.07314 -10.9761,21.49758 -2.29622,3.43415 -5.000897,8.63606 -5.854397,11.25978 -1.53432,4.71663 -2.07108,10.23225 -1.42995,14.69389 0.32326,2.24967 0.9223,4.84119 1.40067,6.05957 0.22464,0.57212 -0.15623,0.47869 -1.28434,-0.31505 z"
       id="path4"
       sodipodi:nodetypes="sssssscscssscccssscccssscccscsscccccccssscssccscsssc" />
  </g>
</svg>
